<svg xmlns="http://www.w3.org/2000/svg" viewBox="0 0 990.43 205.75"><defs><style>.cls-1{fill:#921a3d;}</style></defs><g id="Camada_2" data-name="Camada 2"><g id="Camada_1-2" data-name="Camada 1"><path class="cls-1" d="M289.82,110.37l-15.76,16.16V145h-5.12V74.74h5.12v45.17l43.86-45.17h6.23l-30.92,31.92,33,38.34H320Z"/><path class="cls-1" d="M380.36,125.22H339.6L330.67,145h-5.52l32.32-70.26h5.12L394.91,145h-5.52Zm-1.91-4.31L360,80.36l-18.37,40.55Z"/><path class="cls-1" d="M456.44,145l-16.76-23.49a50.51,50.51,0,0,1-6.83.5H412.78v23h-5.12V74.74h25.19q13.25,0,20.78,6.27t7.53,17.42a21.43,21.43,0,0,1-16.47,22L462.26,145Zm-23.59-27.5q11.23,0,17.16-5t5.93-14.1q0-9.14-5.93-14.11t-17.16-5H412.78V117.5Z"/><path class="cls-1" d="M491.07,140.83A34.32,34.32,0,0,1,478,128a37,37,0,0,1,0-36.34,34.35,34.35,0,0,1,13.1-12.8,39.84,39.84,0,0,1,37.34-.05A34,34,0,0,1,541.5,91.6a37.37,37.37,0,0,1,0,36.54,33.89,33.89,0,0,1-13.09,12.74,39.84,39.84,0,0,1-37.34,0Zm34.63-4.06a29.7,29.7,0,0,0,11.24-11.09,32.46,32.46,0,0,0,0-31.62A29.56,29.56,0,0,0,525.7,83a33.79,33.79,0,0,0-32,0,29.44,29.44,0,0,0-11.3,11.09,32.46,32.46,0,0,0,0,31.62,29.58,29.58,0,0,0,11.3,11.09,33.87,33.87,0,0,0,32,0Z"/><path class="cls-1" d="M564,74.74h5.12v65.64h40.45V145H564Z"/><path class="cls-1" d="M672.24,146,662.1,135.36a28,28,0,0,1-10.24,7.58,32.7,32.7,0,0,1-13.14,2.56,30,30,0,0,1-11.85-2.21,18.75,18.75,0,0,1-8.13-6.22,15.17,15.17,0,0,1-2.91-9.13,17.32,17.32,0,0,1,4.12-11.2q4.11-5.05,14-10.89l-.1-.2a43,43,0,0,1-7.13-9.08,16.83,16.83,0,0,1-1.91-7.88,13.13,13.13,0,0,1,4.52-10.44q4.51-3.91,12.15-3.91,7.13,0,11.29,3.56A12.21,12.21,0,0,1,657,87.68a14.08,14.08,0,0,1-3.56,9.39q-3.57,4.17-12.5,9.38l20.78,22a47,47,0,0,0,5-14.26l4.12,1.31a49,49,0,0,1-6,16.16l10.44,11Zm-13.15-13.85-22.18-23.39q-9.24,5.43-12.7,9.54a14,14,0,0,0-3.46,9.23,11.87,11.87,0,0,0,5.07,9.94q5.07,3.81,13.1,3.81Q651.76,141.28,659.09,132.15Zm-27.8-37.09a47.55,47.55,0,0,0,6.72,8.38q8.34-4.81,11.45-8.18a10.76,10.76,0,0,0,3.11-7.47,8.82,8.82,0,0,0-2.91-7q-2.92-2.57-8.13-2.56-5.62,0-8.79,2.86a9.75,9.75,0,0,0-3.16,7.58A12.87,12.87,0,0,0,631.29,95.06Z"/><path class="cls-1" d="M738.79,110.17h4.92v26.3a30.71,30.71,0,0,1-11.19,6.72,41.69,41.69,0,0,1-13.91,2.31,38.33,38.33,0,0,1-18.82-4.62,33.91,33.91,0,0,1-13.15-12.74,37.44,37.44,0,0,1,0-36.54,34,34,0,0,1,13.15-12.75,38.56,38.56,0,0,1,18.92-4.62,39.92,39.92,0,0,1,14.21,2.46A30.54,30.54,0,0,1,744,83.87l-3.21,3.41a26.56,26.56,0,0,0-9.89-6.37,35.59,35.59,0,0,0-12.1-2,33.16,33.16,0,0,0-16.31,4,29.2,29.2,0,0,0-11.39,11.09A30.91,30.91,0,0,0,687,109.87a30.29,30.29,0,0,0,15.55,26.85,32.59,32.59,0,0,0,16.26,4.06q12,0,20-6.42Z"/><path class="cls-1" d="M814.67,140.38V145H766.19V74.74h47v4.61H771.31v27.71h37.44v4.51H771.31v28.81ZM798,57.17h7.23L789.48,69h-5.42Z"/><path class="cls-1" d="M837.1,142.84A28.32,28.32,0,0,1,826.21,136l2.31-3.82a27.13,27.13,0,0,0,10,6.37,35.61,35.61,0,0,0,13.2,2.46q10,0,15.15-3.81a11.81,11.81,0,0,0,5.12-9.94,10.4,10.4,0,0,0-2.71-7.53,17.89,17.89,0,0,0-6.72-4.31,91.3,91.3,0,0,0-10.84-3.11,103.81,103.81,0,0,1-12.4-3.72,19.79,19.79,0,0,1-7.93-5.57q-3.25-3.76-3.26-10.09a17.11,17.11,0,0,1,2.71-9.38,18.52,18.52,0,0,1,8.28-6.78A33.94,33.94,0,0,1,853,74.23a39.17,39.17,0,0,1,11.45,1.71,33.75,33.75,0,0,1,9.73,4.62l-1.9,4.11A32.56,32.56,0,0,0,863,80.26a34.76,34.76,0,0,0-10-1.51q-9.74,0-14.75,3.92a12.26,12.26,0,0,0-5,10.13,10.36,10.36,0,0,0,2.71,7.53,18,18,0,0,0,6.72,4.32,103.93,103.93,0,0,0,11,3.21A103.31,103.31,0,0,1,866,111.57a20.34,20.34,0,0,1,7.88,5.47q3.25,3.67,3.26,9.89a16.71,16.71,0,0,1-2.76,9.34,18.72,18.72,0,0,1-8.48,6.72,35,35,0,0,1-14.05,2.51A41,41,0,0,1,837.1,142.84Z"/><path class="cls-1" d="M894.47,74.74h5.12V145h-5.12Z"/><path class="cls-1" d="M935.22,140.83A34.32,34.32,0,0,1,922.12,128a37,37,0,0,1,0-36.34,34.35,34.35,0,0,1,13.1-12.8,39.84,39.84,0,0,1,37.34-.05,34.08,34.08,0,0,1,13.1,12.75,37.37,37.37,0,0,1,0,36.54,34,34,0,0,1-13.1,12.74,39.84,39.84,0,0,1-37.34,0Zm34.63-4.06a29.63,29.63,0,0,0,11.24-11.09,32.39,32.39,0,0,0,0-31.62A29.49,29.49,0,0,0,969.85,83a33.79,33.79,0,0,0-32,0,29.34,29.34,0,0,0-11.29,11.09,32.39,32.39,0,0,0,0,31.62,29.48,29.48,0,0,0,11.29,11.09,33.87,33.87,0,0,0,32,0Z"/><path class="cls-1" d="M102.88,0A102.88,102.88,0,1,0,205.75,102.88,102.88,102.88,0,0,0,102.88,0ZM33.81,172.51,80.42,146l11.32,16.13h0l-53.49,14.5Q36,174.67,33.81,172.51ZM137.18,51.13l41.16,65.14-29.62-6.66h0L132.45,43.66Zm-4.42-14,16,7.16-9.23,3.55Zm11.86,71.56h0l-18.9-4.25h0l3.3-59Zm34,11.51-35.16,35.15L50.7,91.41l72.65,16.34Zm-37.86,37.86L113,185.84l-16.6-23.65a.47.47,0,0,0-.06-.09L82.52,142.46l0,0L49.16,94.92Zm-99,21.54L94,165.43l15,21.44-57.18-.18A95.43,95.43,0,0,1,41.77,179.59ZM102.88,201A97.69,97.69,0,0,1,58.7,190.47l54,.16a2.47,2.47,0,0,0,.39,0l.15,0a.74.74,0,0,0,.21-.07l.19-.1a1.56,1.56,0,0,0,.25-.17.83.83,0,0,0,.14-.13l31-31,.13-.14,38.45-38.45a1.9,1.9,0,0,0,.3-.33,1.92,1.92,0,0,0,.28-.64,1.29,1.29,0,0,0,0-.19,2.58,2.58,0,0,0,0-.48.89.89,0,0,1,0-.15,1.91,1.91,0,0,0-.26-.63l0-.08L141.58,51.07l12.75-4.91a1.88,1.88,0,0,0,.1-3.46L128.74,31.2l-.13-.06-.15-.06-.16,0-.23,0H128a1.84,1.84,0,0,0-1.36.44l-.18.17-.15.2s0,0,0,0h0l0,0-.09.16a0,0,0,0,0,0,0s0,0,0,0l0,.06h0a.19.19,0,0,0,0,.08s0,0,0,0a2.29,2.29,0,0,0-.07.28v0a.13.13,0,0,1,0,.06s0,0,0,.07,0,0,0,0l-4,70.85-80-18h-.09l-.32,0a1.24,1.24,0,0,0-.27,0,1.2,1.2,0,0,0-.2,0l-.07,0a1.72,1.72,0,0,0-.26.1,1.41,1.41,0,0,0-.24.13,1.74,1.74,0,0,0-.22.18l0,0,0,0,0,0,0,0-.07.06-.12.18a2,2,0,0,0-.13.25.67.67,0,0,0-.07.18,2.68,2.68,0,0,0-.07.27v0a1.79,1.79,0,0,0,0,.24v0a1.73,1.73,0,0,0,0,.32,1.16,1.16,0,0,0,0,.18c0,.06,0,.11,0,.16l0,0c0,.06,0,.12.08.17l.12.2a0,0,0,0,0,0,0l38.18,54.41L31.1,169.72A98.08,98.08,0,1,1,102.88,201Z"/><path class="cls-1" d="M87.91,34.42A18.51,18.51,0,0,0,77.07,37.9a18.61,18.61,0,1,0,0,30.26A18.61,18.61,0,1,0,87.91,34.42ZM66.23,68.17a15.14,15.14,0,1,1,8.13-27.91,18.62,18.62,0,0,0,0,25.54A15.06,15.06,0,0,1,66.23,68.17ZM72.77,53a15.1,15.1,0,0,1,4.3-10.57,15.14,15.14,0,0,1,0,21.14A15.1,15.1,0,0,1,72.77,53ZM87.91,68.17a15.07,15.07,0,0,1-8.14-2.37,18.62,18.62,0,0,0,0-25.54,15.14,15.14,0,1,1,8.14,27.91Z"/></g></g></svg>